<svg width="100" height="100">
  <rect x="0" y="0" rx="10" ry="10" width="100" height="100" fill="#ddd"/>
  <rect x="10" y="10" rx="3" ry="3" width="65" height="10" fill="#666"/>
  <rect x="10" y="27.5" rx="3" ry="3" width="65" height="10" fill="#666"/>
  <rect x="10" y="45" rx="3" ry="3" width="65" height="10" fill="#666"/>
  <rect x="10" y="62.5" rx="3" ry="3" width="65" height="10" fill="#666"/>
  <circle cx="85" cy="15" r="5" fill="#666"/>
  <polyline points="83,15 85,18 88,12" style="fill:none;stroke:#ddd;stroke-width:1" />
  <circle cx="85" cy="32.5" r="5" fill="#666"/>
  <polyline points="83,32.5 85,35.5 88,29.5" style="fill:none;stroke:#ddd;stroke-width:1" />
  <circle cx="85" cy="50" r="5" fill="#666"/>
  <polyline points="83,50 85,53 88,47" style="fill:none;stroke:#ddd;stroke-width:1" />
  <circle cx="85" cy="67.5" r="5" fill="#666"/>
  <polyline points="83,67.5 85,70.5 88,64.5" style="fill:none;stroke:#ddd;stroke-width:1" />
  <rect x="45" y="80" rx="3" ry="3" width="20" height="10" fill="#666"/>
  <rect x="70" y="80" rx="3" ry="3" width="20" height="10" fill="#666"/>
</svg>